<?xml version="1.0" encoding="UTF-8"?><svg id="Layer_1" xmlns="http://www.w3.org/2000/svg" viewBox="0 0 32 32"><defs><style>.cls-1{fill:#263644;}.cls-1,.cls-2{stroke-width:0px;}.cls-2{fill:#00c9ff;}</style></defs><path class="cls-2" d="M3.27,7.13H1.19v17.74h6.07v-9.78l5.73,4.27,2.07,1.54h.02v-9.89h-2.08v5.81l-5.73-4.27-2.07-1.54h-.01v11.78h-1.91v-13.58h25.39c1.15,0,2.08-.93,2.08-2.08h0s-27.47,0-27.47,0Z"/><path class="cls-1" d="M30.81,13.14v-2.08h-13.88v9.84h.02v.03h9.95v-5.95h-.04s-5.98-.01-5.98-.01v2.08h3.94v1.8h-5.81v-5.7h9.67v9.65H11.17c-1.15,0-2.08.93-2.08,2.08h21.72v-2.08h-.04v-9.65h.04Z"/></svg>